<svg xmlns="http://www.w3.org/2000/svg" width="24" height="24" viewBox="0 0 24 24">
  <path fill="#4285F4" d="M22.56 12.25c0-.78-.07-1.53-.2-2.25H12v4.51h5.92c-.25 1.37-1 2.53-2.13 3.31v2.68h3.44c2.01-1.85 3.17-4.58 3.17-7.75z"/>
  <path fill="#34A853" d="M12 23c2.97 0 5.46-.98 7.28-2.66l-3.44-2.68c-.95.64-2.17 1.02-3.84 1.02-2.95 0-5.45-1.99-6.35-4.67H1.72v2.92C3.45 20.12 7.4 23 12 23z"/>
  <path fill="#FBBC05" d="M5.65 14.01c-.23-.69-.36-1.42-.36-2.18s.13-1.49.36-2.18V6.73H1.72C1.26 7.8 1 9 1 12.25s.26 4.45.72 5.52l3.93-3.01z"/>
  <path fill="#EA4335" d="M12 4.75c1.67 0 3.17.59 4.35 1.74L20.29 3.5C18.45 1.83 15.6 1 12 1 7.4 1 3.45 3.88 1.72 7.73l3.93 3.01c.9-2.68 3.4-4.67 6.35-4.67z"/>
</svg>
